<svg width="205" height="65" viewBox="0 0 205 65" version="1.1" xmlns="http://www.w3.org/2000/svg" xmlns:xlink="http://www.w3.org/1999/xlink">
<title>logo</title>
<desc>Created using Figma</desc>
<g id="Canvas" transform="translate(-3141 42)">
<g id="logo">
<g id="logo">
<g id="Слой 2">
<g id="Layer 1">
<g id="Vector">
<use xlink:href="#path0_fill" transform="translate(3167.85 -41.878)" fill="#E30613"/>
</g>
<g id="Vector">
<use xlink:href="#path1_fill" transform="translate(3186.45 -38.9838)" fill="#FFFFFF"/>
</g>
<g id="Vector">
<use xlink:href="#path2_fill" transform="translate(3141 -41.9625)" fill="#E30613"/>
</g>
<g id="Vector">
<use xlink:href="#path3_fill" transform="translate(3143.75 -39.1198)" fill="#FFFFFF"/>
</g>
<g id="Vector">
<use xlink:href="#path4_fill" transform="translate(3152.1 -34.1643)" fill="#FFFFFF"/>
</g>
<g id="Vector">
<use xlink:href="#path5_fill" transform="translate(3148.79 -30.8697)" fill="#FFFFFF"/>
</g>
<g id="Vector">
<use xlink:href="#path6_fill" transform="translate(3214.07 -7.86592)" fill="#009490"/>
</g>
<g id="Vector">
<use xlink:href="#path7_fill" transform="translate(3233.21 -7.73756)" fill="#009490"/>
</g>
<g id="Vector">
<use xlink:href="#path8_fill" transform="translate(3250.45 -14.2858)" fill="#009490"/>
</g>
<g id="Vector">
<use xlink:href="#path9_fill" transform="translate(3268.08 -7.49443)" fill="#009490"/>
</g>
<g id="Vector">
<use xlink:href="#path10_fill" transform="translate(3283.62 -7.53305)" fill="#009490"/>
</g>
<g id="Vector">
<use xlink:href="#path11_fill" transform="translate(3299.15 -7.49443)" fill="#009490"/>
</g>
<g id="Vector">
<use xlink:href="#path12_fill" transform="translate(3314.66 -7.49443)" fill="#009490"/>
</g>
<g id="Vector">
<use xlink:href="#path13_fill" transform="translate(3329.49 -7.76513)" fill="#009490"/>
</g>
<g id="Vector">
<use xlink:href="#path14_fill" transform="translate(3143.41 13.8646)" fill="#1D1D1B"/>
</g>
<g id="Vector">
<use xlink:href="#path15_fill" transform="translate(3151.94 13.8724)" fill="#1D1D1B"/>
</g>
<g id="Vector">
<use xlink:href="#path16_fill" transform="translate(3158.39 13.7313)" fill="#1D1D1B"/>
</g>
<g id="Vector">
<use xlink:href="#path17_fill" transform="translate(3165.5 13.8724)" fill="#1D1D1B"/>
</g>
<g id="Vector">
<use xlink:href="#path18_fill" transform="translate(3169.77 13.7313)" fill="#1D1D1B"/>
</g>
<g id="Vector">
<use xlink:href="#path19_fill" transform="translate(3176.88 13.8724)" fill="#1D1D1B"/>
</g>
<g id="Vector">
<use xlink:href="#path20_fill" transform="translate(3183.53 13.7544)" fill="#1D1D1B"/>
</g>
<g id="Vector">
<use xlink:href="#path21_fill" transform="translate(3189.97 13.7313)" fill="#1D1D1B"/>
</g>
<g id="Vector">
<use xlink:href="#path22_fill" transform="translate(3196.77 10.8597)" fill="#1D1D1B"/>
</g>
<g id="Vector">
<use xlink:href="#path23_fill" transform="translate(3205.89 13.8724)" fill="#1D1D1B"/>
</g>
<g id="Vector">
<use xlink:href="#path24_fill" transform="translate(3211.89 13.8646)" fill="#1D1D1B"/>
</g>
<g id="Vector">
<use xlink:href="#path25_fill" transform="translate(3219.46 13.8724)" fill="#1D1D1B"/>
</g>
<g id="Vector">
<use xlink:href="#path26_fill" transform="translate(3225.39 13.8724)" fill="#1D1D1B"/>
</g>
<g id="Vector">
<use xlink:href="#path27_fill" transform="translate(3231.75 13.72)" fill="#1D1D1B"/>
</g>
<g id="Vector">
<use xlink:href="#path28_fill" transform="translate(3237.48 13.7487)" fill="#1D1D1B"/>
</g>
<g id="Vector">
<use xlink:href="#path29_fill" transform="translate(3246.59 13.7252)" fill="#1D1D1B"/>
</g>
<g id="Vector">
<use xlink:href="#path30_fill" transform="translate(3251.95 13.7309)" fill="#1D1D1B"/>
</g>
<g id="Vector">
<use xlink:href="#path31_fill" transform="translate(3258.54 13.8878)" fill="#1D1D1B"/>
</g>
<g id="Vector">
<use xlink:href="#path32_fill" transform="translate(3266.74 13.7232)" fill="#1D1D1B"/>
</g>
<g id="Vector">
<use xlink:href="#path33_fill" transform="translate(3273.44 11.3309)" fill="#1D1D1B"/>
</g>
<g id="Vector">
<use xlink:href="#path34_fill" transform="translate(3280.29 13.8724)" fill="#1D1D1B"/>
</g>
<g id="Vector">
<use xlink:href="#path35_fill" transform="translate(3286.65 13.72)" fill="#1D1D1B"/>
</g>
<g id="Vector">
<use xlink:href="#path36_fill" transform="translate(3292.38 13.7487)" fill="#1D1D1B"/>
</g>
<g id="Vector">
<use xlink:href="#path37_fill" transform="translate(3301.86 13.8724)" fill="#1D1D1B"/>
</g>
<g id="Vector">
<use xlink:href="#path38_fill" transform="translate(3307.17 13.8569)" fill="#1D1D1B"/>
</g>
<g id="Vector">
<use xlink:href="#path39_fill" transform="translate(3314.75 13.8724)" fill="#1D1D1B"/>
</g>
<g id="Vector">
<use xlink:href="#path40_fill" transform="translate(3321.59 13.8724)" fill="#1D1D1B"/>
</g>
<g id="Vector">
<use xlink:href="#path41_fill" transform="translate(3328.33 13.8724)" fill="#1D1D1B"/>
</g>
<g id="Vector">
<use xlink:href="#path42_fill" transform="translate(3335.2 13.8724)" fill="#1D1D1B"/>
</g>
<g id="Vector">
<use xlink:href="#path43_fill" transform="translate(3340.65 13.72)" fill="#1D1D1B"/>
</g>
</g>
</g>
</g>
</g>
</g>
<defs>
<path id="path0_fill" fill-rule="evenodd" d="M 34.1745 2.82002C 36.6299 4.89149 38.1658 7.85051 38.4466 11.0507C 38.7274 14.2509 37.7303 17.4321 35.6731 19.8996L 31.4554 24.9207L 35.6731 29.9418C 37.7332 32.4109 38.7319 35.5952 38.4511 38.7985C 38.1703 42.0019 36.6327 44.9638 34.1745 47.0368C 31.7009 49.091 28.5142 50.0816 25.3119 49.7921C 22.1096 49.5026 19.1524 47.9564 17.0873 45.4918C 11.3323 38.6708 5.70863 31.8189 -1.29658e-06 24.9207C 5.7009 18.0456 11.3477 11.1551 17.095 4.31864C 19.1665 1.86322 22.1255 0.327363 25.3257 0.0465681C 28.5258 -0.234226 31.7071 0.762861 34.1745 2.82002Z"/>
<path id="path1_fill" fill-rule="evenodd" d="M 1.42908 4.56069C 1.37105 4.65433 1.29366 4.73448 1.2021 4.79575C 1.11054 4.85701 1.00693 4.89799 0.898237 4.91593C 0.78954 4.93386 0.678263 4.92834 0.571876 4.89973C 0.465488 4.87112 0.36645 4.82009 0.281409 4.75005C 0.196367 4.68002 0.12729 4.5926 0.0788118 4.49368C 0.0303334 4.39475 0.00357429 4.2866 0.000333169 4.17648C -0.00290795 4.06636 0.0174441 3.95682 0.0600202 3.85521C 0.102596 3.7536 0.166413 3.66228 0.247188 3.58736C 0.551838 3.21685 0.885023 2.87075 1.24369 2.55224C 1.60685 2.22485 1.99419 1.9253 2.40241 1.65616C 3.62864 0.863483 5.00766 0.337138 6.45021 0.111204C 7.02534 0.0248939 7.60689 -0.0112913 8.18829 0.00305634C 8.75669 0.0128496 9.32298 0.0749095 9.88002 0.188452C 10.6683 0.333352 11.431 0.593642 12.1434 0.960932C 12.832 1.34687 13.453 1.84263 13.9819 2.42864C 14.0841 2.58082 14.1288 2.76437 14.1081 2.94649C 14.0874 3.12861 14.0026 3.29743 13.8689 3.4228C 13.7352 3.54816 13.5612 3.62189 13.3781 3.63081C 13.1951 3.63973 13.0148 3.58326 12.8695 3.47149C 12.4474 3.02819 11.9571 2.65527 11.4173 2.36685C 10.839 2.06105 10.2199 1.83993 9.57875 1.71024C 9.11046 1.6168 8.63481 1.5651 8.15739 1.55574C 7.66358 1.54576 7.16985 1.57936 6.68195 1.65616C 6.06732 1.75063 5.46414 1.90854 4.88207 2.12738C 4.29768 2.34184 3.73822 2.61898 3.21351 2.95393C 2.86869 3.18465 2.54318 3.44299 2.24019 3.72641C 1.94869 3.98315 1.67751 4.26208 1.42908 4.56069Z"/>
<path id="path2_fill" fill-rule="evenodd" d="M 12.1202 0C 15.3329 0.00814824 18.4118 1.28747 20.6842 3.55846C 22.9567 5.82946 24.238 8.90753 24.2482 12.1202L 24.2482 37.7357C 24.24 40.9483 22.9607 44.0272 20.6897 46.2997C 18.4187 48.5721 15.3406 49.8534 12.1279 49.8636C 8.91392 49.8554 5.83387 48.5751 3.5612 46.3024C 1.28854 44.0297 0.00815746 40.9497 2.40135e-15 37.7357L 0 12.1202C 0.0101851 8.90887 1.2904 5.83196 3.56118 3.56118C 5.83196 1.2904 8.90887 0.0101851 12.1202 3.4305e-16L 12.1202 0Z"/>
<path id="path3_fill" fill-rule="evenodd" d="M 9.32384 5.15686e-08C 9.52871 5.5886e-08 9.72519 0.0813861 9.87006 0.226254C 10.0149 0.371122 10.0963 0.567606 10.0963 0.77248C 10.0963 0.977355 10.0149 1.17384 9.87006 1.31871C 9.72519 1.46357 9.52871 1.54496 9.32384 1.54496C 8.29773 1.55139 7.2838 1.76786 6.34453 2.18104C 5.40525 2.59421 4.56053 3.19534 3.8624 3.94737C 2.3762 5.52901 1.54764 7.61699 1.54496 9.78733C 1.54496 9.9922 1.46357 10.1887 1.31871 10.3336C 1.17384 10.4784 0.977355 10.5598 0.77248 10.5598C 0.567606 10.5598 0.371122 10.4784 0.226254 10.3336C 0.081386 10.1887 -4.42017e-08 9.9922 -4.42017e-08 9.78733C 0.00625182 7.22189 0.989614 4.7552 2.75003 2.88908C 3.59025 1.98392 4.60706 1.26057 5.7377 0.763669C 6.86835 0.266769 8.08884 0.00686528 9.32384 5.15686e-08Z"/>
<path id="path4_fill" fill-rule="evenodd" d="M -8.84034e-08 1.02354C -8.84034e-08 0.752078 0.107836 0.491737 0.299787 0.299787C 0.491737 0.107837 0.752077 2.06274e-07 1.02354 2.06274e-07C 1.29499 2.06274e-07 1.55534 0.107837 1.74729 0.299787C 1.93924 0.491737 2.04707 0.752078 2.04707 1.02354L 2.04707 7.65142C 2.04707 7.92288 1.93924 8.18322 1.74729 8.37517C 1.55534 8.56712 1.29499 8.67495 1.02354 8.67495C 0.752077 8.67495 0.491737 8.56712 0.299787 8.37517C 0.107836 8.18322 -8.84034e-08 7.92288 -8.84034e-08 7.65142L -8.84034e-08 1.02354Z"/>
<path id="path5_fill" fill-rule="evenodd" d="M 1.01967 2.03935C 0.749239 2.03935 0.489882 1.93192 0.298656 1.74069C 0.10743 1.54947 -5.89356e-08 1.29011 -5.89356e-08 1.01967C -5.89356e-08 0.74924 0.10743 0.489882 0.298656 0.298656C 0.489882 0.10743 0.749239 -2.6521e-07 1.01967 -2.6521e-07L 7.663 -2.6521e-07C 7.93344 -2.6521e-07 8.1928 0.10743 8.38402 0.298656C 8.57525 0.489882 8.68268 0.74924 8.68268 1.01967C 8.68268 1.29011 8.57525 1.54947 8.38402 1.74069C 8.1928 1.93192 7.93344 2.03935 7.663 2.03935L 1.01967 2.03935Z"/>
<path id="path6_fill" d="M 14.2214 0.000709609C 14.6824 -0.0100657 15.13 0.155743 15.4728 0.4642C 15.8399 0.82515 16.0763 1.29806 16.1448 1.80831L 18.8562 15.4658L 16.0444 15.4658L 13.9896 3.58502L 11.425 13.1483C 11.0078 14.6933 10.3667 15.4658 9.50151 15.4658C 9.26433 15.474 9.0282 15.4306 8.80945 15.3386C 8.5907 15.2466 8.39458 15.1081 8.23464 14.9328C 7.82658 14.4049 7.54155 13.7927 7.40036 13.1406L 4.83573 3.57729L 2.81183 15.4658L -2.82891e-06 15.4658L 2.69596 1.80831C 2.7733 1.29034 3.0238 0.813839 3.40664 0.456473C 3.75057 0.150816 4.19812 -0.0121798 4.65806 0.000709609C 5.68803 0.000709609 6.37039 0.603244 6.70513 1.80831L 9.45516 11.3407L 12.2052 1.80831C 12.5193 0.603244 13.1914 0.000709609 14.2214 0.000709609Z"/>
<path id="path7_fill" d="M 0.0309201 7.75937C 0.0309532 6.42491 0.382653 5.11403 1.05059 3.95877C 1.71425 2.77507 2.6721 1.78263 3.83152 1.07742C 4.83808 0.458318 5.9804 0.0939516 7.15953 0.0158812C 8.33866 -0.0621892 9.51905 0.14839 10.5984 0.629377C 11.5136 1.03739 12.3422 1.61689 13.0395 2.33656C 13.7386 3.05848 14.2967 3.90471 14.6849 4.83167C 15.0799 5.75977 15.2823 6.75844 15.2797 7.7671C 15.2801 8.15777 15.2491 8.54784 15.187 8.93354L 2.95862 8.93354C 3.17098 10.0772 3.76131 11.1164 4.6349 11.8844C 5.45588 12.6269 6.52524 13.0348 7.63212 13.0277C 8.4483 13.023 9.24936 12.8071 9.95734 12.401C 10.6653 11.9949 11.2561 11.4124 11.6722 10.7102L 13.6575 12.5719C 13.0029 13.4543 12.1648 14.1843 11.201 14.7117C 10.113 15.3166 8.88444 15.623 7.63984 15.6C 6.27581 15.6136 4.93613 15.2384 3.77745 14.5186C 2.62058 13.8071 1.66573 12.8106 1.00433 11.6244C 0.342927 10.4382 -0.00287969 9.10205 2.02111e-05 7.74392L 0.0309201 7.75937ZM 7.63984 2.5374C 6.53134 2.52627 5.45901 2.9315 4.6349 3.67295C 3.76437 4.43386 3.17414 5.46471 2.95862 6.60065L 12.3443 6.60065C 12.2038 5.83916 11.895 5.11865 11.4404 4.49178C 10.9992 3.88771 10.4224 3.39559 9.75644 3.05496C 9.10314 2.71385 8.37684 2.53625 7.63984 2.5374Z"/>
<path id="path8_fill" d="M 12.3734 7.16215C 12.3734 5.4112 11.9588 4.1881 11.1297 3.49287C 10.1236 2.74167 8.88351 2.3721 7.63035 2.45002C 6.59158 2.48387 5.55772 2.60793 4.54043 2.82081C 3.2624 3.05796 2.00464 3.39371 0.778445 3.82504L 1.17242 1.05183C 3.36492 0.340268 5.65749 -0.0144396 7.96251 0.00126205C 9.18193 -0.0194269 10.3922 0.214739 11.5159 0.688769C 12.5851 1.16966 13.4709 1.9823 14.0419 3.00621C 14.7266 4.28645 15.0548 5.72713 14.9921 7.1776L 14.9921 13.1334C 14.9921 13.8287 14.9766 14.4466 14.9457 14.9874C 14.9158 15.5262 14.8382 16.0613 14.714 16.5864C 14.5954 17.122 14.4111 17.6409 14.1655 18.1314C 13.7716 18.9147 13.2405 19.6211 12.5974 20.2171C 11.9201 20.8272 11.1339 21.3041 10.28 21.623C 9.40505 21.9481 8.47874 22.113 7.54538 22.1096C 6.19202 22.1284 4.85835 21.7843 3.68298 21.1131C 2.54058 20.4558 1.60425 19.4927 0.979297 18.3322C 0.4071 17.2284 0.0773137 16.015 0.0120347 14.7734C -0.0532444 13.5317 0.147487 12.2905 0.600777 11.1327C 0.977377 10.2042 1.53694 9.36087 2.24616 8.65304C 2.92868 7.98873 3.73422 7.46395 4.61767 7.10808C 5.4968 6.74398 6.43933 6.55758 7.39087 6.55962C 7.96627 6.5611 8.54031 6.6154 9.10578 6.72184C 9.55486 6.79349 9.99506 6.91261 10.419 7.07718L 11.485 10.4684C 10.4102 9.59863 9.07466 9.11448 7.69214 9.09335C 6.79463 9.08111 5.91073 9.31343 5.13523 9.76541C 4.36558 10.2054 3.73824 10.8568 3.32763 11.6425C 2.88943 12.4947 2.66915 13.4422 2.68647 14.4003C 2.67073 15.3484 2.89106 16.2854 3.32763 17.1271C 3.71943 17.8909 4.31932 18.5283 5.05799 18.9657C 5.82168 19.3968 6.68381 19.6234 7.56082 19.6234C 8.43783 19.6234 9.29997 19.3968 10.0637 18.9657C 10.8021 18.5225 11.3974 17.8762 11.7786 17.104C 12.2033 16.2423 12.4152 15.2913 12.3966 14.3308L 12.3734 7.16215Z"/>
<path id="path9_fill" d="M 12.8029 -8.25098e-07L 12.8029 15.1252L 10.1455 15.1252L 10.1455 13.9278C 9.66575 14.4311 9.07988 14.8212 8.43048 15.0697C 7.78109 15.3182 7.08448 15.419 6.39128 15.3646C 5.52295 15.4194 4.65292 15.2886 3.83908 14.981C 3.02525 14.6733 2.2863 14.1958 1.67142 13.5802C 0.506757 12.22 -0.0881663 10.4629 0.0105938 8.67495L 0.0105938 -8.25098e-07L 2.66793 -8.25098e-07L 2.66793 8.73675C 2.62879 9.80352 3.00864 10.8432 3.72622 11.6336C 4.06699 12.0067 4.48422 12.302 4.94947 12.4993C 5.41471 12.6966 5.91704 12.7913 6.42218 12.7768C 7.1022 12.7957 7.77329 12.6186 8.35541 12.2666C 8.93753 11.9146 9.40611 11.4025 9.70522 10.7915C 9.99838 10.2039 10.1492 9.55563 10.1455 8.89897L 10.1455 -8.25098e-07L 12.8029 -8.25098e-07Z"/>
<path id="path10_fill" d="M 12.7923 -2.35742e-07L 12.7923 12.6301L 14.0437 12.6301L 14.0437 15.1638L 6.13349 15.1638C 5.29651 15.2061 4.46041 15.0648 3.68379 14.7499C 2.90716 14.435 2.20881 13.954 1.63766 13.3407C 0.54589 12.1254 -3.77188e-06 10.4002 -3.77188e-06 8.16512L -3.77188e-06 -2.35742e-07L 2.61098 -2.35742e-07L 2.61098 8.49728C 2.59517 9.23642 2.73465 9.97065 3.0204 10.6525C 3.27836 11.2537 3.71533 11.7608 4.27181 12.1048C 4.89656 12.4696 5.61121 12.6516 6.33434 12.6301L 10.0963 12.6301L 10.0963 -2.35742e-07L 12.7923 -2.35742e-07Z"/>
<path id="path11_fill" d="M 12.7797 -8.25098e-07L 12.7797 15.1252L 10.1224 15.1252L 10.1224 13.9278C 9.64583 14.4293 9.06406 14.819 8.41892 15.0688C 7.77378 15.3186 7.08129 15.4222 6.39128 15.3724C 5.52295 15.4272 4.65292 15.2964 3.83908 14.9887C 3.02525 14.681 2.2863 14.2035 1.67142 13.5879C 0.506758 12.2277 -0.0881654 10.4706 0.0105947 8.68268L 0.0105947 -8.25098e-07L 2.66792 -8.25098e-07L 2.66792 8.73675C 2.62878 9.80352 3.00864 10.8432 3.72622 11.6336C 4.06354 12.0027 4.47576 12.2957 4.93535 12.4929C 5.39493 12.69 5.89129 12.7868 6.39128 12.7768C 7.07129 12.7957 7.74238 12.6186 8.32451 12.2666C 8.90663 11.9146 9.3752 11.4025 9.67432 10.7915C 9.96748 10.2039 10.1183 9.55563 10.1146 8.89897L 10.1146 -8.25098e-07L 12.7797 -8.25098e-07Z"/>
<path id="path12_fill" d="M -1.88594e-06 -8.25098e-07L 2.65733 -8.25098e-07L 2.65733 5.46916L 10.1427 5.46916L 10.1427 -8.25098e-07L 12.8 -8.25098e-07L 12.8 15.0943L 10.1427 15.0943L 10.1427 8.01835L 2.65733 8.01835L 2.65733 15.1097L -1.88594e-06 15.1097L -1.88594e-06 -8.25098e-07Z"/>
<path id="path13_fill" d="M 12.422 15.365L 12.422 7.84873C 12.4397 6.88831 12.2278 5.93755 11.804 5.07553C 11.4233 4.30047 10.8246 3.65343 10.0814 3.21385C 9.31812 2.78551 8.45759 2.56054 7.58238 2.56054C 6.70716 2.56054 5.84664 2.78551 5.0834 3.21385C 4.345 3.65151 3.7452 4.2888 3.35306 5.05235C 2.92621 5.88597 2.71129 6.8119 2.72734 7.74831C 2.70938 8.70894 2.92966 9.65906 3.3685 10.5138C 3.77166 11.2992 4.39074 11.9531 5.15292 12.3986C 5.92616 12.8493 6.80722 13.0815 7.70211 13.0707C 9.08555 13.0474 10.4212 12.5605 11.495 11.688L 10.429 15.0791C 9.46674 15.4616 8.43567 15.6404 7.40085 15.6044C 6.45122 15.6046 5.51107 15.4156 4.63536 15.0482C 3.72659 14.6714 2.90198 14.1174 2.20966 13.4184C 1.51733 12.7195 0.971158 11.8896 0.603016 10.9773C 0.193458 9.96945 -0.0113664 8.89018 0.000481924 7.80238C -0.00519611 6.74631 0.186049 5.69844 0.564401 4.71246C 0.908202 3.78852 1.43351 2.94277 2.10936 2.22508C 2.80256 1.50164 3.64286 0.935288 4.57356 0.564242C 5.52627 0.182483 6.54449 -0.00908932 7.57079 0.00033168C 8.50424 -0.00400118 9.43074 0.160885 10.3054 0.486995C 11.1593 0.805856 11.9455 1.28282 12.6228 1.89291C 13.3046 2.50689 13.8653 3.24314 14.2759 4.06358C 14.6266 4.73406 14.8567 5.46095 14.9557 6.21107C 15.0587 7.13952 15.1051 8.07337 15.0947 9.00745L 15.0947 15.3341L 12.422 15.365Z"/>
<path id="path14_fill" d="M 2.99722 5.19879C 2.95087 5.08035 2.88135 4.9207 2.78865 4.71985L 2.47966 4.03235L 2.10887 3.25987L 1.71491 2.44104L 1.34412 1.66856C 1.22567 1.43681 1.12525 1.24627 1.04285 1.09692C 0.939851 1.98785 0.865178 2.83501 0.818829 3.63839C 0.77248 4.44176 0.726131 5.23484 0.679783 6.01762L -8.84034e-08 6.01762C 0.0308991 5.01855 0.0823978 4.00917 0.154496 2.9895C 0.226594 1.96982 0.321867 0.973323 0.440314 -2.59317e-06L 1.21279 -2.59317e-06C 1.31579 0.164793 1.44711 0.396539 1.60676 0.695231C 1.7664 0.993923 1.9415 1.33639 2.13205 1.72263C 2.32259 2.10887 2.52086 2.52344 2.72686 2.96633L 3.35256 4.31817L 3.97827 2.96633C 4.18427 2.51829 4.38254 2.10372 4.57308 1.72263L 5.09065 0.695231C 5.20942 0.456596 5.34093 0.224516 5.48461 -2.59317e-06L 6.25709 -2.59317e-06C 6.37554 0.978473 6.47081 1.97497 6.54291 2.9895C 6.61501 4.00402 6.66651 5.0134 6.6974 6.01762L 5.979 6.01762C 5.9481 5.21939 5.90947 4.41859 5.86313 3.61521C 5.81678 2.81183 5.7421 1.96468 5.63911 1.07375C 5.55413 1.22825 5.45371 1.42137 5.33784 1.65311L 4.97477 2.42559L 4.58853 3.24442L 4.22547 4.0169L 3.91648 4.70441C 3.82378 4.9104 3.75425 5.07262 3.70791 5.19107L 2.99722 5.19879Z"/>
<path id="path15_fill" d="M 4.80483 6.00989L 4.03235 6.00989L 4.03235 3.20579L 0.77248 3.20579L 0.77248 6.00989L -1.17871e-07 6.00989L -1.17871e-07 -9.42969e-07L 0.77248 -9.42969e-07L 0.77248 2.57236L 4.0478 2.57236L 4.0478 -9.42969e-07L 4.82028 -9.42969e-07L 4.80483 6.00989Z"/>
<path id="path16_fill" d="M 5.48707 3.15377C 5.49381 3.59207 5.42589 4.02831 5.28622 4.44381C 5.16357 4.80825 4.9692 5.14444 4.71459 5.43259C 4.47358 5.70182 4.17886 5.9176 3.84941 6.06602C 3.50035 6.21563 3.12453 6.29278 2.74476 6.29278C 2.36499 6.29278 1.98918 6.21563 1.64012 6.06602C 1.31066 5.9176 1.01594 5.70182 0.774939 5.43259C 0.520326 5.14444 0.325963 4.80825 0.203304 4.44381C -0.0677675 3.60515 -0.0677675 2.7024 0.203304 1.86373C 0.326356 1.49716 0.520621 1.15851 0.774939 0.867232C 1.01471 0.594692 1.3096 0.376155 1.64012 0.226072C 1.98929 0.0769029 2.36506 9.38975e-07 2.74476 9.38975e-07C 3.12447 9.38975e-07 3.50024 0.0769029 3.84941 0.226072C 4.17993 0.376155 4.47482 0.594692 4.71459 0.867232C 4.96874 1.15862 5.16299 1.49724 5.28622 1.86373C 5.42589 2.27923 5.49381 2.71548 5.48707 3.15377ZM 4.71459 3.15377C 4.74808 2.51167 4.56291 1.87718 4.1893 1.35389C 4.0168 1.14505 3.80029 0.976901 3.55524 0.861474C 3.3102 0.746047 3.04267 0.686194 2.7718 0.686194C 2.50093 0.686194 2.2334 0.746047 1.98836 0.861474C 1.74331 0.976901 1.5268 1.14505 1.3543 1.35389C 1.01177 1.8903 0.829774 2.51347 0.829774 3.14991C 0.829774 3.78635 1.01177 4.40952 1.3543 4.94593C 1.52833 5.15237 1.74535 5.31831 1.99019 5.43215C 2.23504 5.54598 2.50179 5.60496 2.7718 5.60496C 3.04181 5.60496 3.30856 5.54598 3.55341 5.43215C 3.79825 5.31831 4.01527 5.15237 4.1893 4.94593C 4.55253 4.42188 4.72686 3.78993 4.68369 3.15377L 4.71459 3.15377Z"/>
<path id="path17_fill" d="M 3.46071 0.641159L 0.77248 0.641159L 0.77248 6.04852L -7.07227e-07 6.04852L -7.07227e-07 -9.42969e-07L 3.44526 -9.42969e-07L 3.46071 0.641159Z"/>
<path id="path18_fill" d="M 5.48707 3.15377C 5.49381 3.59207 5.42589 4.02831 5.28622 4.44381C 5.16357 4.80825 4.9692 5.14444 4.71459 5.43259C 4.47358 5.70182 4.17886 5.9176 3.84941 6.06602C 3.50035 6.21563 3.12453 6.29278 2.74476 6.29278C 2.36499 6.29278 1.98918 6.21563 1.64012 6.06602C 1.31066 5.9176 1.01594 5.70182 0.774939 5.43259C 0.520326 5.14444 0.325962 4.80825 0.203302 4.44381C -0.0677691 3.60515 -0.0677691 2.7024 0.203302 1.86373C 0.326354 1.49716 0.52062 1.15851 0.774939 0.867232C 1.01471 0.594692 1.3096 0.376155 1.64012 0.226072C 1.98929 0.0769029 2.36506 9.38975e-07 2.74476 9.38975e-07C 3.12447 9.38975e-07 3.50024 0.0769029 3.84941 0.226072C 4.17993 0.376155 4.47482 0.594692 4.71459 0.867232C 4.96874 1.15862 5.16299 1.49724 5.28622 1.86373C 5.42589 2.27923 5.49381 2.71548 5.48707 3.15377ZM 4.71459 3.15377C 4.74808 2.51167 4.56291 1.87718 4.1893 1.35389C 4.0168 1.14505 3.80029 0.976901 3.55524 0.861474C 3.3102 0.746047 3.04267 0.686194 2.7718 0.686194C 2.50093 0.686194 2.2334 0.746047 1.98836 0.861474C 1.74331 0.976901 1.5268 1.14505 1.3543 1.35389C 1.01177 1.8903 0.829773 2.51347 0.829773 3.14991C 0.829773 3.78635 1.01177 4.40952 1.3543 4.94593C 1.52833 5.15237 1.74535 5.31831 1.99019 5.43215C 2.23504 5.54598 2.50179 5.60496 2.7718 5.60496C 3.04181 5.60496 3.30856 5.54598 3.55341 5.43215C 3.79825 5.31831 4.01527 5.15237 4.1893 4.94593C 4.55253 4.42188 4.72686 3.78993 4.68369 3.15377L 4.71459 3.15377Z"/>
<path id="path19_fill" d="M 4.65806 6.00989L 3.88558 6.00989L 3.88558 0.602533L 0.772481 0.602533L 0.772481 6.00989L 5.89356e-07 6.00989L 5.89356e-07 -9.42969e-07L 4.63488 -9.42969e-07L 4.65806 6.00989Z"/>
<path id="path20_fill" d="M 0.77248 8.2831L -5.89356e-07 8.2831L -5.89356e-07 0.326559C 0.704469 0.0928408 1.44414 -0.0169375 2.18612 0.00211267C 2.59791 -0.00311008 3.00692 0.0703062 3.39119 0.218412C 3.74186 0.357362 4.05815 0.570856 4.31816 0.844119C 4.58489 1.12875 4.79002 1.46536 4.9207 1.83289C 5.07011 2.25434 5.14335 2.69901 5.13699 3.14611C 5.14186 3.5724 5.08196 3.99696 4.95932 4.40525C 4.84997 4.76734 4.66868 5.10364 4.42631 5.39403C 4.19228 5.67137 3.89935 5.89304 3.56886 6.04291C 3.20397 6.20321 2.80861 6.28228 2.41014 6.27466C 2.06649 6.27135 1.72628 6.20592 1.40591 6.08154C 1.18155 6.00478 0.9685 5.89826 0.77248 5.76482L 0.77248 8.2831ZM 0.77248 5.04641C 0.856196 5.11111 0.943919 5.17045 1.03512 5.22408C 1.15103 5.29324 1.27246 5.35267 1.39819 5.40175C 1.54644 5.45738 1.69883 5.50128 1.85395 5.53307C 2.02154 5.56889 2.19242 5.58701 2.36379 5.58715C 2.68617 5.59674 3.00631 5.5306 3.29849 5.39403C 3.54228 5.27218 3.75197 5.09168 3.90875 4.86874C 4.0703 4.63529 4.18567 4.37308 4.24864 4.09626C 4.3212 3.78477 4.35749 3.46593 4.35679 3.14611C 4.40171 2.48437 4.18853 1.83096 3.76198 1.32305C 3.56314 1.11522 3.32288 0.951449 3.05674 0.842334C 2.79061 0.733218 2.50453 0.681189 2.21702 0.68962C 1.91484 0.685741 1.61278 0.703812 1.31322 0.743693C 1.13813 0.766124 0.965076 0.80229 0.795656 0.851846L 0.77248 5.04641Z"/>
<path id="path21_fill" d="M 5.48668 3.15377C 5.49342 3.59207 5.4255 4.02831 5.28583 4.44381C 5.16317 4.80825 4.96881 5.14444 4.7142 5.43259C 4.47319 5.70182 4.17847 5.9176 3.84902 6.06602C 3.49995 6.21563 3.12414 6.29278 2.74437 6.29278C 2.3646 6.29278 1.98878 6.21563 1.63972 6.06602C 1.31027 5.9176 1.01555 5.70182 0.774548 5.43259C 0.519934 5.14444 0.32557 4.80825 0.202911 4.44381C -0.0676371 3.60506 -0.0676371 2.70248 0.202911 1.86373C 0.326148 1.49724 0.520395 1.15862 0.774548 0.867232C 1.01432 0.594692 1.3092 0.376155 1.63972 0.226072C 1.9889 0.0769029 2.36467 9.38975e-07 2.74437 9.38975e-07C 3.12407 9.38975e-07 3.49984 0.0769029 3.84902 0.226072C 4.17953 0.376155 4.47443 0.594692 4.7142 0.867232C 4.96835 1.15862 5.16259 1.49724 5.28583 1.86373C 5.4255 2.27923 5.49342 2.71548 5.48668 3.15377ZM 4.7142 3.15377C 4.74769 2.51167 4.56252 1.87718 4.18891 1.35389C 4.01641 1.14505 3.7999 0.976901 3.55485 0.861474C 3.3098 0.746047 3.04228 0.686194 2.77141 0.686194C 2.50054 0.686194 2.23301 0.746047 1.98797 0.861474C 1.74292 0.976901 1.52641 1.14505 1.35391 1.35389C 1.01138 1.8903 0.829381 2.51347 0.829381 3.14991C 0.829381 3.78635 1.01138 4.40952 1.35391 4.94593C 1.52794 5.15237 1.74496 5.31831 1.9898 5.43215C 2.23464 5.54598 2.5014 5.60496 2.77141 5.60496C 3.04142 5.60496 3.30817 5.54598 3.55301 5.43215C 3.79785 5.31831 4.01488 5.15237 4.18891 4.94593C 4.55214 4.42188 4.72647 3.78993 4.6833 3.15377L 4.7142 3.15377Z"/>
<path id="path22_fill" d="M 4.08041 2.97405C 4.49118 2.97368 4.89979 3.03354 5.2932 3.15172C 5.68713 3.26542 6.05648 3.4514 6.38239 3.70018C 6.70551 3.95737 6.96905 4.28153 7.15488 4.65033C 7.35444 5.07852 7.45785 5.54521 7.45785 6.01762C 7.45785 6.49003 7.35444 6.95672 7.15488 7.38491C 6.96905 7.75372 6.70551 8.07787 6.38239 8.33506C 6.05688 8.58627 5.68756 8.77486 5.2932 8.89125C 4.89972 9.0091 4.49116 9.06896 4.08041 9.06892L 4.08041 11.1778L 3.30793 11.1778L 3.30793 9.06892C 2.92049 9.0624 2.53579 9.00261 2.16465 8.89125C 1.77029 8.77486 1.40097 8.58627 1.07545 8.33506C 0.752166 8.07805 0.488592 7.75385 0.302973 7.38491C 0.103409 6.95672 2.4896e-06 6.49003 2.4896e-06 6.01762C 2.4896e-06 5.54521 0.103409 5.07852 0.302973 4.65033C 0.488592 4.28139 0.752166 3.95719 1.07545 3.70018C 1.40196 3.45414 1.77128 3.2708 2.16465 3.15945C 2.55806 3.04126 2.96667 2.9814 3.37745 2.98177L 3.37745 0.139045L 4.14993 -2.12168e-06L 4.08041 2.97405ZM 3.30793 3.61521C 2.95831 3.61332 2.61091 3.67079 2.28053 3.78515C 1.97649 3.88954 1.69573 4.05222 1.45397 4.26409C 1.21612 4.47772 1.02878 4.74159 0.905512 5.03657C 0.640661 5.68254 0.640661 6.40678 0.905512 7.05275C 1.029 7.34761 1.21631 7.61143 1.45397 7.82523C 1.69596 8.03678 1.97665 8.19942 2.28053 8.30416C 2.61091 8.41853 2.95831 8.47599 3.30793 8.47411L 3.30793 3.61521ZM 4.08041 8.42776C 4.43002 8.42964 4.77742 8.37218 5.1078 8.25781C 5.41168 8.15307 5.69237 7.99042 5.93436 7.77887C 6.17201 7.56507 6.35933 7.30125 6.48282 7.00639C 6.74767 6.36043 6.74767 5.63618 6.48282 4.99022C 6.35955 4.69523 6.17221 4.43137 5.93436 4.21774C 5.6926 4.00587 5.41184 3.84319 5.1078 3.73881C 4.77742 3.62444 4.43002 3.56698 4.08041 3.56886L 4.08041 8.42776Z"/>
<path id="path23_fill" d="M 4.0787 0.9656C 3.84695 1.24369 3.57659 1.59646 3.26759 2.0239C 2.9586 2.45134 2.64188 2.89938 2.31744 3.36801C 2.0033 3.8418 1.7046 4.31302 1.42136 4.78165L 0.648881 6.01762L 0 6.01762L 0 -9.42969e-07L 0.77248 -9.42969e-07L 0.77248 4.82027C 0.957876 4.48553 1.18962 4.09929 1.46771 3.66155C 1.74581 3.22382 2.02905 2.78093 2.31744 2.33289C 2.62643 1.88485 2.938 1.45741 3.25214 1.05057C 3.52719 0.685289 3.82114 0.33462 4.13277 -9.42969e-07L 4.84345 -9.42969e-07L 4.84345 6.01762L 4.07097 6.01762L 4.0787 0.9656Z"/>
<path id="path24_fill" d="M 2.60326 0.648884L 2.60326 0.896077C 2.60326 1.12782 2.60326 1.38531 2.60326 1.66856C 2.60326 1.9518 2.58781 2.23247 2.55691 2.51056C 2.55691 2.79638 2.49511 3.08219 2.44876 3.36801C 2.40019 3.6292 2.3357 3.88717 2.25564 4.14049C 2.17304 4.39192 2.067 4.63503 1.93892 4.86663C 1.81553 5.08754 1.66216 5.2903 1.48316 5.46916C 1.30775 5.64584 1.10412 5.79204 0.88063 5.90175C 0.637668 6.01821 0.376259 6.0914 0.10815 6.11805L -2.59317e-06 5.49233C 0.355425 5.42986 0.685314 5.26626 0.950151 5.02112C 1.21628 4.73879 1.41675 4.40115 1.53724 4.03235C 1.70145 3.5561 1.8002 3.05975 1.83078 2.55691C 1.87198 2.00073 1.89258 1.39304 1.89258 0.733857L 1.89258 -2.59317e-06L 5.58503 -2.59317e-06L 5.58503 6.01762L 4.81255 6.01762L 4.81255 0.610258L 2.60326 0.648884Z"/>
<path id="path25_fill" d="M -2.35742e-07 -9.42969e-07L 0.77248 -9.42969e-07L 0.77248 2.41014C 0.978721 2.35792 1.18758 2.31666 1.39819 2.28654C 1.68201 2.24409 1.96867 2.22344 2.25564 2.22475C 2.56529 2.22382 2.87392 2.26013 3.17489 2.33289C 3.45202 2.39494 3.7144 2.51038 3.94737 2.67278C 4.16568 2.82926 4.34318 3.0359 4.46494 3.27531C 4.59161 3.56115 4.65705 3.87033 4.65705 4.18298C 4.65705 4.49563 4.59161 4.80481 4.46494 5.09065C 4.34125 5.33321 4.1611 5.5425 3.93965 5.70091C 3.70697 5.86383 3.44448 5.97932 3.16717 6.04079C 2.84518 6.11318 2.51614 6.14945 2.18612 6.14894C 1.97755 6.14894 1.76898 6.14894 1.55269 6.14894L 0.950153 6.08715L 0.440313 6.00217C 0.308683 5.97736 0.179452 5.94117 0.0540732 5.89403L -2.35742e-07 -9.42969e-07ZM 2.13205 5.46916C 2.56593 5.4898 2.99688 5.38809 3.37574 5.17562C 3.5344 5.06552 3.66093 4.91522 3.74238 4.74011C 3.82382 4.565 3.85725 4.3714 3.83923 4.17912C 3.84288 3.9807 3.79779 3.78441 3.70791 3.60748C 3.62738 3.44898 3.511 3.31144 3.36801 3.20579C 3.21442 3.0967 3.04136 3.01804 2.85817 2.97405C 2.64598 2.92115 2.42797 2.89519 2.20929 2.8968C 1.9518 2.8968 1.69431 2.8968 1.43681 2.8968C 1.2029 2.91543 0.972076 2.96211 0.749307 3.03585L 0.749307 5.35329C 0.925514 5.38828 1.10343 5.41407 1.28232 5.43053C 1.56211 5.45826 1.84317 5.47116 2.12432 5.46916L 2.13205 5.46916Z"/>
<path id="path26_fill" d="M 4.81255 6.00989L 4.04007 6.00989L 4.04007 3.20579L 0.772479 3.20579L 0.772479 6.00989L -1.6502e-06 6.00989L -1.6502e-06 -9.42969e-07L 0.772479 -9.42969e-07L 0.772479 2.57236L 4.04007 2.57236L 4.04007 -9.42969e-07L 4.81255 -9.42969e-07L 4.81255 6.00989Z"/>
<path id="path27_fill" d="M 2.27184 0.0133409C 2.6144 0.00490398 2.95536 0.062607 3.27607 0.183288C 3.53385 0.28197 3.76428 0.440887 3.94812 0.646775C 4.1217 0.851116 4.24828 1.09109 4.31892 1.34973C 4.39812 1.6365 4.43711 1.93287 4.43479 2.23036L 4.43479 6.02324L 4.0949 6.10049L 3.58506 6.18546C 3.38937 6.21636 3.17307 6.24211 2.93618 6.26271C 2.69928 6.28331 2.45724 6.28331 2.21004 6.26271C 1.91309 6.26426 1.61716 6.22791 1.32941 6.15456C 1.07778 6.09147 0.841376 5.97851 0.634187 5.8224C 0.434925 5.66979 0.275837 5.47094 0.170694 5.24304C 0.0506611 4.97079 -0.00738105 4.67528 0.000753438 4.37786C -0.00719903 4.08873 0.0564893 3.80212 0.186147 3.54358C 0.310054 3.30958 0.490657 3.11038 0.711434 2.96422C 0.946518 2.80731 1.20832 2.69474 1.48391 2.63205C 1.81618 2.55859 2.15558 2.52232 2.49586 2.5239L 2.83575 2.5239L 3.18337 2.57026L 3.47691 2.63205L 3.64686 2.68612L 3.64686 2.31534C 3.64716 2.11102 3.63167 1.907 3.60051 1.70507C 3.57264 1.51504 3.50414 1.33323 3.39966 1.17206C 3.28919 1.00703 3.13737 0.87385 2.95935 0.785821C 2.71732 0.675771 2.4524 0.62544 2.18687 0.639054C 1.85466 0.627275 1.52232 0.658428 1.19809 0.731748L 0.71916 0.886247L 0.611008 0.221914C 0.807081 0.139879 1.0118 0.0802738 1.22127 0.0442409C 1.56952 -0.00141644 1.9215 -0.0117695 2.27184 0.0133409ZM 2.34137 5.62155C 2.63491 5.62155 2.8924 5.62155 3.11385 5.62155C 3.30309 5.60618 3.49135 5.58039 3.67776 5.5443L 3.67776 3.39681C 3.54552 3.34269 3.40843 3.3013 3.26834 3.27321C 3.01385 3.22469 2.75483 3.20397 2.49586 3.21141C 2.3021 3.21141 2.10855 3.22431 1.9165 3.25004C 1.72218 3.27642 1.53395 3.33655 1.36031 3.4277C 1.19383 3.51303 1.05065 3.63765 0.943174 3.79077C 0.826254 3.97493 0.769558 4.19092 0.780954 4.40876C 0.774074 4.60497 0.811018 4.80025 0.889101 4.98039C 0.951907 5.12377 1.05029 5.24874 1.17492 5.34346C 1.32269 5.44113 1.48794 5.50933 1.66158 5.5443C 1.8844 5.59639 2.11254 5.62231 2.34137 5.62155Z"/>
<path id="path28_fill" d="M 2.20157 3.68479L 1.82305 4.26415C 1.68916 4.4753 1.55783 4.68902 1.42909 4.90531C 1.30034 5.12161 1.17932 5.3379 1.06602 5.55419C 0.947573 5.76534 0.849728 5.96103 0.77248 6.14128L -4.71485e-07 6.14128C 0.212542 5.66404 0.45774 5.20203 0.733854 4.75854C 1.02225 4.29505 1.27974 3.88821 1.50633 3.53802C 1.34908 3.49033 1.19853 3.42284 1.0583 3.33718C 0.912648 3.25092 0.782163 3.14131 0.67206 3.01273C 0.555466 2.87241 0.463999 2.713 0.401693 2.54152C 0.327355 2.34141 0.290684 2.12927 0.29354 1.91581C 0.286386 1.61846 0.352721 1.32393 0.48666 1.05836C 0.611625 0.820902 0.791768 0.616919 1.01195 0.463549C 1.24657 0.302403 1.50821 0.184662 1.78443 0.11593C 2.10544 0.0371658 2.43495 -0.00174657 2.76548 6.23941e-05L 3.28304 6.23941e-05L 3.85468 0.0618563L 4.38769 0.14683L 4.79711 0.239529L 4.79711 6.11811L 4.02463 6.11811L 4.02463 3.71569L 2.47967 3.71569C 2.38641 3.71124 2.29352 3.70092 2.20157 3.68479ZM 4.07097 0.772543L 3.61521 0.69529C 3.35873 0.666956 3.10077 0.654062 2.84273 0.656669C 2.63004 0.65579 2.4178 0.676497 2.20929 0.718469C 2.01268 0.757508 1.82444 0.830714 1.65311 0.934763C 1.49579 1.03136 1.36346 1.16368 1.26687 1.321C 1.16463 1.49937 1.11382 1.70259 1.12009 1.90808C 1.11441 2.10424 1.15965 2.29853 1.25142 2.472C 1.33683 2.62405 1.46244 2.74965 1.61449 2.83506C 1.78981 2.93172 1.98063 2.99707 2.17839 3.02818C 2.43347 3.07227 2.69204 3.09296 2.95088 3.08998L 4.14049 3.08998L 4.07097 0.772543Z"/>
<path id="path29_fill" d="M 2.85384 6.28841C 2.43113 6.29577 2.01111 6.21964 1.61787 6.06439C 1.27556 5.92696 0.971004 5.70979 0.729519 5.43096C 0.48492 5.14087 0.301044 4.80464 0.188785 4.44218C -0.0629259 3.60583 -0.0629259 2.71389 0.188785 1.87754C 0.305716 1.50922 0.494785 1.16785 0.744972 0.873323C 0.983618 0.594327 1.28194 0.37256 1.61787 0.224436C 1.98159 0.0699275 2.37374 -0.00639656 2.76887 0.00041623C 3.07471 -0.000102604 3.37992 0.0283492 3.6804 0.0853895C 3.90844 0.12181 4.12975 0.192113 4.337 0.293963L 4.13616 0.942843C 3.96869 0.861266 3.79244 0.799067 3.61087 0.75745C 3.35678 0.705467 3.09767 0.68215 2.83839 0.687929C 2.54781 0.665301 2.25603 0.71237 1.98731 0.825231C 1.71859 0.938093 1.4807 1.11348 1.29343 1.33681C 0.9169 1.87006 0.734257 2.51613 0.775866 3.16759C 0.772339 3.49822 0.811288 3.82793 0.891745 4.14864C 0.959705 4.43079 1.08893 4.69452 1.27025 4.92112C 1.45098 5.13974 1.68143 5.31191 1.94232 5.42323C 2.26144 5.55032 2.60318 5.61078 2.94653 5.6009C 3.22349 5.60852 3.4999 5.57202 3.76537 5.49275C 3.9325 5.4415 4.09523 5.37692 4.25203 5.29963L 4.41425 5.94852C 4.2055 6.05008 3.98494 6.12533 3.75764 6.17254C 3.462 6.24669 3.15862 6.28558 2.85384 6.28841Z"/>
<path id="path30_fill" d="M 0.000915435 3.13871C -0.00931344 2.66799 0.0666028 2.19937 0.22493 1.75597C 0.359214 1.3942 0.561073 1.06127 0.819743 0.774913C 1.05078 0.519678 1.33577 0.319123 1.65402 0.187826C 1.9561 0.0662704 2.27856 0.0033529 2.60417 0.00243219C 2.93229 -0.0127945 3.25978 0.0435766 3.56392 0.167634C 3.86807 0.291692 4.14157 0.480464 4.36542 0.720839C 4.85364 1.35481 5.08778 2.14812 5.02204 2.94559C 5.02204 3.00738 5.02204 3.06918 5.02204 3.13098C 5.02204 3.19278 5.02204 3.25457 5.02204 3.30865L 0.796569 3.30865C 0.777873 3.92144 0.971635 4.52185 1.34502 5.00811C 1.55626 5.221 1.81184 5.38468 2.09358 5.4875C 2.37531 5.59031 2.67625 5.62972 2.97496 5.60291C 3.30593 5.61352 3.63662 5.57446 3.95601 5.48704C 4.1355 5.43219 4.311 5.36509 4.48129 5.2862L 4.62034 5.93508C 4.42519 6.03059 4.22069 6.10566 4.01009 6.1591C 3.66759 6.25089 3.31408 6.29508 2.95952 6.29042C 2.49803 6.3031 2.03859 6.22435 1.60768 6.05868C 1.25435 5.91795 0.939351 5.69559 0.688422 5.40979C 0.442067 5.12037 0.26269 4.7801 0.16313 4.41329C 0.0501426 3.99802 -0.00444886 3.56904 0.000915435 3.13871ZM 4.27273 2.65977C 4.29067 2.13551 4.13597 1.61986 3.83241 1.19205C 3.68233 1.01719 3.4924 0.880995 3.27863 0.794951C 3.06486 0.708906 2.83354 0.675541 2.60417 0.697666C 2.35253 0.691779 2.10325 0.747467 1.87804 0.859886C 1.66669 0.967202 1.47789 1.11405 1.32185 1.29247C 1.16068 1.47925 1.03502 1.69393 0.951063 1.92591C 0.86056 2.17404 0.808464 2.43453 0.796569 2.69839L 4.27273 2.65977Z"/>
<path id="path31_fill" d="M 3.00495 5.17562C 2.9586 5.05717 2.88908 4.89752 2.79638 4.69668L 2.48739 4.00917L 2.11659 3.23669L 1.72263 2.41786L 1.35184 1.64538C 1.2334 1.41364 1.13297 1.2231 1.05058 1.07375C 0.947579 1.96468 0.872899 2.81183 0.826551 3.61521C 0.780202 4.41859 0.741583 5.21939 0.710683 6.01762L 2.82891e-06 6.01762C 0.030902 5.01854 0.0823984 4.00917 0.154497 2.9895C 0.226595 1.96982 0.321863 0.973328 0.44031 2.35742e-06L 1.21279 2.35742e-06C 1.31579 0.164798 1.44712 0.396538 1.60676 0.69523C 1.76641 0.993922 1.9415 1.33639 2.13204 1.72263C 2.32259 2.10887 2.52086 2.52344 2.72686 2.96632L 3.35256 4.31816L 3.97827 2.96632C 4.18427 2.51829 4.38254 2.10372 4.57308 1.72263L 5.09065 0.69523C 5.20942 0.456595 5.34092 0.224521 5.48461 2.35742e-06L 6.25709 2.35742e-06C 6.37553 0.978477 6.47081 1.97497 6.54291 2.9895C 6.61501 4.00402 6.66651 5.01339 6.69741 6.01762L 5.97899 6.01762C 5.94809 5.21939 5.90947 4.41859 5.86313 3.61521C 5.81678 2.81183 5.74211 1.96468 5.63911 1.07375C 5.55414 1.22825 5.45372 1.42137 5.33784 1.65311L 4.97478 2.42559L 4.58854 3.24442L 4.22547 4.0169L 3.91647 4.7044C 3.82377 4.9104 3.75426 5.07262 3.70791 5.19107L 3.00495 5.17562Z"/>
<path id="path32_fill" d="M 0.000914963 3.14643C -0.00931391 2.67572 0.0666023 2.2071 0.224929 1.76369C 0.359044 1.40184 0.560921 1.06888 0.819742 0.782637C 1.05078 0.527403 1.33577 0.326848 1.65402 0.195551C 1.9628 0.0684267 2.29342 0.00282562 2.62734 0.00243054C 2.95546 -0.0127962 3.28297 0.0435808 3.58711 0.167639C 3.89125 0.291697 4.16474 0.480463 4.3886 0.720837C 4.87682 1.35481 5.11096 2.14812 5.04521 2.94558C 5.04521 3.00738 5.04521 3.06918 5.04521 3.13098C 5.04521 3.19278 5.04521 3.25458 5.04521 3.30865L 0.819742 3.30865C 0.801046 3.92144 0.994808 4.52185 1.3682 5.00811C 1.57943 5.221 1.83503 5.38469 2.11676 5.4875C 2.39849 5.59031 2.69942 5.62972 2.99813 5.60291C 3.3291 5.61352 3.65979 5.57447 3.97918 5.48705C 4.15867 5.43219 4.33418 5.36509 4.50448 5.2862L 4.64352 5.93508C 4.44834 6.03054 4.24384 6.10561 4.03326 6.1591C 3.69076 6.25089 3.33725 6.29508 2.98269 6.29043C 2.5212 6.30311 2.06176 6.22434 1.63085 6.05868C 1.27753 5.91794 0.962524 5.69559 0.711595 5.40979C 0.462469 5.1211 0.28043 4.78077 0.178582 4.4133C 0.0610855 4.00125 0.00129595 3.5749 0.000914963 3.14643ZM 4.27273 2.66749C 4.29067 2.14323 4.13597 1.62758 3.83241 1.19978C 3.68939 1.02485 3.50713 0.886113 3.30043 0.794843C 3.09373 0.703573 2.86842 0.66234 2.6428 0.674491C 2.39115 0.668604 2.14188 0.724292 1.91666 0.836711C 1.70532 0.944027 1.51651 1.09088 1.36048 1.2693C 1.19931 1.45608 1.07365 1.67076 0.989689 1.90274C 0.899302 2.1509 0.84721 2.41138 0.835195 2.67522L 4.27273 2.66749Z"/>
<path id="path33_fill" d="M 4.12504 3.50706C 3.8933 3.78515 3.62294 4.13792 3.31395 4.56536C 3.00495 4.9928 2.69338 5.44341 2.37924 5.9172C 2.0651 6.39099 1.7664 6.8622 1.48316 7.33084L 0.710678 8.56681L -2.35742e-06 8.56681L -2.35742e-06 2.54146L 0.772478 2.54146L 0.772478 7.36173C 0.957873 7.02699 1.18962 6.64075 1.46772 6.20301C 1.74581 5.76528 2.03935 5.32239 2.34834 4.87435C 2.65734 4.42631 2.9689 3.99887 3.28304 3.59203C 3.55809 3.22675 3.85203 2.87608 4.16367 2.54146L 4.87435 2.54146L 4.87435 8.55908L 4.10187 8.55908L 4.12504 3.50706ZM 2.44876 1.55269C 2.05831 1.56829 1.67587 1.43897 1.37501 1.18962C 1.08154 0.920884 0.892702 0.556903 0.841998 0.162219L 1.45999 -1.6502e-06C 1.49506 0.242544 1.60279 0.468777 1.76898 0.648885C 1.95884 0.81001 2.19975 0.898459 2.44876 0.898459C 2.69777 0.898459 2.93869 0.81001 3.12855 0.648885C 3.29474 0.468777 3.40246 0.242544 3.43753 -1.6502e-06L 4.05552 0.162219C 4.00482 0.556903 3.81598 0.920884 3.52251 1.18962C 3.22164 1.43897 2.83921 1.56829 2.44876 1.55269Z"/>
<path id="path34_fill" d="M 4.81255 6.00989L 4.04007 6.00989L 4.04007 3.20579L 0.772478 3.20579L 0.772478 6.00989L -1.88594e-06 6.00989L -1.88594e-06 -9.42969e-07L 0.772478 -9.42969e-07L 0.772478 2.57236L 4.04007 2.57236L 4.04007 -9.42969e-07L 4.81255 -9.42969e-07L 4.81255 6.00989Z"/>
<path id="path35_fill" d="M 2.27185 0.0133409C 2.6144 0.00490398 2.95536 0.062607 3.27606 0.183288C 3.53384 0.28197 3.76428 0.440887 3.94813 0.646775C 4.12171 0.851116 4.24828 1.09109 4.31892 1.34973C 4.39812 1.6365 4.43711 1.93287 4.43478 2.23036L 4.43478 6.02324L 4.0949 6.10049L 3.58506 6.18546C 3.38937 6.21636 3.17307 6.24211 2.93618 6.26271C 2.69929 6.28331 2.45724 6.28331 2.21005 6.26271C 1.9131 6.26426 1.61717 6.22791 1.32942 6.15456C 1.07779 6.09147 0.84137 5.97851 0.634181 5.8224C 0.434919 5.66979 0.275843 5.47094 0.1707 5.24304C 0.0506668 4.97079 -0.00738129 4.67528 0.000753202 4.37786C -0.00719926 4.08873 0.0564831 3.80212 0.186141 3.54358C 0.310048 3.30958 0.490656 3.11038 0.711434 2.96422C 0.946517 2.80731 1.20832 2.69474 1.48391 2.63205C 1.81618 2.55859 2.15558 2.52232 2.49586 2.5239L 2.83575 2.5239L 3.18337 2.57026L 3.47691 2.63205L 3.64686 2.68612L 3.64686 2.31534C 3.64717 2.11102 3.63167 1.907 3.60051 1.70507C 3.57265 1.51504 3.50414 1.33323 3.39966 1.17206C 3.28919 1.00703 3.13738 0.87385 2.95935 0.785821C 2.71732 0.675771 2.4524 0.62544 2.18687 0.639054C 1.85467 0.627275 1.52233 0.658428 1.1981 0.731748L 0.719154 0.886247L 0.611008 0.221914C 0.807081 0.139879 1.01181 0.0802738 1.22127 0.0442409C 1.56953 -0.00141644 1.92151 -0.0117695 2.27185 0.0133409ZM 2.34137 5.62155C 2.63491 5.62155 2.8924 5.62155 3.11385 5.62155C 3.30309 5.60616 3.49134 5.58038 3.67776 5.5443L 3.67776 3.39681C 3.54552 3.34269 3.40843 3.3013 3.26834 3.27321C 3.01385 3.22469 2.75483 3.20397 2.49586 3.21141C 2.3021 3.21141 2.10855 3.22431 1.9165 3.25004C 1.72218 3.27642 1.53395 3.33655 1.36031 3.4277C 1.19383 3.51303 1.05066 3.63765 0.94318 3.79077C 0.826259 3.97493 0.769558 4.19092 0.780954 4.40876C 0.774073 4.60497 0.811018 4.80025 0.889101 4.98039C 0.959368 5.13025 1.06879 5.25835 1.20582 5.35118C 1.35359 5.44885 1.51884 5.51705 1.69249 5.55202C 1.90554 5.59918 2.12316 5.6225 2.34137 5.62155Z"/>
<path id="path36_fill" d="M 2.20157 3.68479L 1.82306 4.26415C 1.68916 4.4753 1.55783 4.68902 1.42909 4.90531C 1.30034 5.12161 1.17932 5.3379 1.06602 5.55419C 0.947573 5.76534 0.849734 5.96103 0.772485 6.14128L 5.18633e-06 6.14128C 0.212569 5.66405 0.457767 5.20205 0.733859 4.75854C 1.02225 4.29505 1.27975 3.88821 1.50634 3.53802C 1.34909 3.49033 1.19853 3.42284 1.0583 3.33718C 0.912648 3.25092 0.782163 3.14131 0.672059 3.01273C 0.554811 2.87286 0.463269 2.71333 0.401686 2.54152C 0.327349 2.34141 0.290683 2.12927 0.29354 1.91581C 0.286386 1.61846 0.35272 1.32393 0.48666 1.05836C 0.611625 0.820902 0.791774 0.616919 1.01195 0.463549C 1.24658 0.302403 1.50822 0.184662 1.78443 0.11593C 2.10545 0.0371658 2.43494 -0.00174657 2.76547 6.23941e-05L 3.28305 6.23941e-05L 3.85467 0.0618563L 4.38769 0.14683L 4.7971 0.239529L 4.7971 6.11811L 4.02462 6.11811L 4.02462 3.71569L 2.47966 3.71569C 2.3864 3.71126 2.29352 3.70094 2.20157 3.68479ZM 4.07097 0.772543L 3.61521 0.69529C 3.35872 0.666956 3.10076 0.654062 2.84273 0.656669C 2.63004 0.65579 2.41781 0.676497 2.2093 0.718469C 2.01269 0.757508 1.82444 0.830714 1.65311 0.934763C 1.49579 1.03136 1.36347 1.16368 1.26687 1.321C 1.16425 1.49922 1.11342 1.70254 1.1201 1.90808C 1.11441 2.10424 1.15965 2.29853 1.25142 2.472C 1.33683 2.62405 1.46244 2.74965 1.61449 2.83506C 1.78981 2.93172 1.98063 2.99707 2.17839 3.02818C 2.43347 3.07227 2.69204 3.09296 2.95087 3.08998L 4.1405 3.08998L 4.07097 0.772543Z"/>
<path id="path37_fill" d="M 4.24336e-06 6.00989L 4.24336e-06 -9.42969e-07L 0.772485 -9.42969e-07L 0.772485 2.77321L 1.49861 2.07025L 2.27109 1.29777L 2.9895 0.563912L 3.52251 -9.42969e-07L 4.44949 -9.42969e-07C 4.26924 0.200844 4.05552 0.427442 3.80833 0.679786L 3.03585 1.45227L 2.26337 2.22475L 1.61449 2.84273C 1.90614 3.03539 2.18483 3.24699 2.44877 3.47616C 2.74872 3.7339 3.03494 4.00722 3.30622 4.29499C 3.57916 4.58853 3.83666 4.88723 4.0787 5.19107C 4.29604 5.46761 4.49722 5.75649 4.68123 6.05625L 3.78515 6.05625C 3.58548 5.75133 3.36614 5.45974 3.12854 5.18334C 2.8762 4.8898 2.6187 4.60913 2.35606 4.34134C 2.09313 4.08533 1.81726 3.84297 1.52951 3.61521C 1.28437 3.42261 1.02627 3.2471 0.757032 3.08992L 0.757032 6.06397L 4.24336e-06 6.00989Z"/>
<path id="path38_fill" d="M 2.60326 0.656609L 2.60326 0.903802C 2.60326 1.13555 2.60326 1.39304 2.60326 1.67628C 2.60326 1.95953 2.58781 2.24019 2.55691 2.51828C 2.55691 2.8041 2.49511 3.08992 2.44876 3.37574C 2.40022 3.63693 2.33573 3.89491 2.25564 4.14822C 2.17304 4.39965 2.067 4.64276 1.93892 4.87435C 1.81553 5.09526 1.66215 5.29803 1.48316 5.47688C 1.30775 5.65356 1.10412 5.79976 0.880628 5.90948C 0.637665 6.02593 0.376256 6.09913 0.108147 6.12577L 4.71485e-07 5.50006C 0.350792 5.4326 0.675058 5.26645 0.934707 5.02112C 1.20083 4.73879 1.4013 4.40116 1.52179 4.03235C 1.686 3.5561 1.78476 3.05975 1.81533 2.55691C 1.85653 2.00072 1.87712 1.39304 1.87712 0.733856L 1.87712 1.6502e-06L 5.57731 1.6502e-06L 5.57731 6.01762L 4.80483 6.01762L 4.80483 0.610262L 2.60326 0.656609Z"/>
<path id="path39_fill" d="M 4.08643 0.9656C 3.85468 1.24369 3.58431 1.59646 3.27532 2.0239C 2.96633 2.45134 2.66763 2.89938 2.37924 3.36801C 2.0651 3.8418 1.7664 4.31302 1.48316 4.78165L 0.710679 6.01762L -1.41445e-06 6.01762L -1.41445e-06 -9.42969e-07L 0.772479 -9.42969e-07L 0.772479 4.82027C 0.957874 4.48553 1.18963 4.09929 1.46772 3.66155C 1.74581 3.22382 2.03935 2.78093 2.34835 2.33289C 2.65734 1.88485 2.9689 1.45741 3.28304 1.05057C 3.55809 0.685289 3.85203 0.33462 4.16367 -9.42969e-07L 4.87435 -9.42969e-07L 4.87435 6.01762L 4.10187 6.01762L 4.08643 0.9656Z"/>
<path id="path40_fill" d="M 4.81255 6.00989L 4.04007 6.00989L 4.04007 3.20579L 0.772484 3.20579L 0.772484 6.00989L 3.30039e-06 6.00989L 3.30039e-06 -9.42969e-07L 0.772484 -9.42969e-07L 0.772484 2.57236L 4.04007 2.57236L 4.04007 -9.42969e-07L 4.81255 -9.42969e-07L 4.81255 6.00989Z"/>
<path id="path41_fill" d="M 4.12505 0.965599C 3.89331 1.24369 3.62294 1.59646 3.31394 2.0239C 3.00495 2.45134 2.69338 2.90195 2.37924 3.37574C 2.06509 3.84953 1.7664 4.32074 1.48316 4.78938L 0.710676 6.02535L -4.24336e-06 6.02535L -4.24336e-06 -9.42969e-07L 0.772476 -9.42969e-07L 0.772476 4.82027C 0.957871 4.48553 1.18962 4.09929 1.46772 3.66155C 1.74581 3.22382 2.03935 2.78093 2.34834 2.33289C 2.65733 1.88485 2.9689 1.45741 3.28304 1.05057C 3.55809 0.685289 3.85203 0.33462 4.16366 -9.42969e-07L 4.87436 -9.42969e-07L 4.87436 6.01762L 4.10188 6.01762L 4.12505 0.965599Z"/>
<path id="path42_fill" d="M -4.71485e-06 6.00989L -4.71485e-06 -9.42969e-07L 0.772476 -9.42969e-07L 0.772476 2.77321L 1.49861 2.07025L 2.27109 1.29777L 2.9895 0.563912L 3.52252 -9.42969e-07L 4.42632 -9.42969e-07C 4.24607 0.200844 4.03234 0.427442 3.78514 0.679786L 3.01268 1.45227L 2.2402 2.22475L 1.59131 2.84273C 1.88296 3.03541 2.16164 3.24701 2.42558 3.47616C 2.72554 3.7339 3.01175 4.00722 3.28304 4.29499C 3.55598 4.58853 3.81347 4.88723 4.05552 5.19107C 4.27283 5.46763 4.47401 5.75651 4.65805 6.05625L 3.78514 6.05625C 3.58549 5.75131 3.36616 5.45972 3.12854 5.18334C 2.8762 4.8898 2.61871 4.60913 2.35606 4.34134C 2.09315 4.08531 1.81728 3.84295 1.52951 3.61521C 1.28436 3.42263 1.02626 3.24712 0.757035 3.08992L 0.757035 6.06397L -4.71485e-06 6.00989Z"/>
<path id="path43_fill" d="M 2.2719 0.0133409C 2.61445 0.00490398 2.95541 0.062607 3.27611 0.183288C 3.5339 0.28197 3.76432 0.440887 3.94817 0.646775C 4.12175 0.851116 4.24834 1.09109 4.31897 1.34973C 4.39817 1.6365 4.43716 1.93287 4.43484 2.23036L 4.43484 6.02324L 4.09494 6.10049L 3.5851 6.18546C 3.38941 6.21636 3.17312 6.24211 2.93622 6.26271C 2.69933 6.28331 2.45728 6.28331 2.21009 6.26271C 1.91314 6.26426 1.61722 6.22791 1.32947 6.15456C 1.07784 6.09147 0.841411 5.97851 0.634222 5.8224C 0.434959 5.66979 0.275895 5.47094 0.170752 5.24304C 0.0504711 4.97087 -0.00758802 4.6753 0.000805667 4.37786C -0.0071468 4.08873 0.0565356 3.80212 0.186193 3.54358C 0.3101 3.30958 0.490697 3.11038 0.711474 2.96422C 0.946558 2.80731 1.20836 2.69474 1.48395 2.63205C 1.81622 2.55859 2.15562 2.52232 2.4959 2.5239L 2.8358 2.5239L 3.18342 2.57026L 3.47697 2.63205L 3.64691 2.68612L 3.64691 2.31534C 3.64722 2.11102 3.6317 1.907 3.60054 1.70507C 3.57268 1.51504 3.50419 1.33323 3.39971 1.17206C 3.28924 1.00703 3.13742 0.87385 2.95939 0.785821C 2.71736 0.675771 2.45244 0.62544 2.18691 0.639054C 1.85471 0.627275 1.52237 0.658428 1.19814 0.731748L 0.719207 0.886247L 0.611048 0.221914C 0.807121 0.139879 1.01185 0.0802738 1.22131 0.0442409C 1.56957 -0.00141644 1.92156 -0.0117695 2.2719 0.0133409ZM 2.34142 5.62155C 2.63496 5.62155 2.89246 5.62155 3.1139 5.62155C 3.30315 5.60618 3.49139 5.58039 3.6778 5.5443L 3.6778 3.39681C 3.54556 3.34269 3.40847 3.3013 3.26838 3.27321C 3.01389 3.22469 2.75487 3.20397 2.4959 3.21141C 2.30214 3.21141 2.10859 3.22431 1.91654 3.25004C 1.72222 3.27642 1.53399 3.33655 1.36036 3.4277C 1.19387 3.51303 1.05071 3.63765 0.943233 3.79077C 0.826312 3.97493 0.769599 4.19092 0.780995 4.40876C 0.774114 4.60497 0.81107 4.80025 0.889153 4.98039C 0.958118 5.12668 1.06476 5.25199 1.19814 5.34346C 1.34591 5.44113 1.51116 5.50933 1.68481 5.5443C 1.90008 5.59463 2.12034 5.62054 2.34142 5.62155Z"/>
</defs>
</svg>