<svg width="25" height="24" viewBox="0 0 25 24" version="1.1" xmlns="http://www.w3.org/2000/svg" xmlns:xlink="http://www.w3.org/1999/xlink">
<title>tellHeader</title>
<desc>Created using Figma</desc>
<g id="Canvas" transform="translate(-657 22)">
<g id="tellHeader">
<g id="Group">
<g id="Group">
<g id="Vector">
<use xlink:href="#path0_fill" transform="translate(657.082 -19.6958)" fill="#444444"/>
</g>
<g id="Vector">
<use xlink:href="#path1_fill" transform="translate(668.96 -17.2056)" fill="#444444"/>
</g>
<g id="Vector">
<use xlink:href="#path2_fill" transform="translate(669.205 -22)" fill="#444444"/>
</g>
</g>
</g>
</g>
</g>
<defs>
<path id="path0_fill" d="M 18.2461 13.5723C 17.462 12.7982 16.4832 12.7982 15.7041 13.5723C 15.1098 14.1616 14.5155 14.7509 13.9312 15.3502C 13.7713 15.515 13.6365 15.55 13.4417 15.4401C 13.0572 15.2303 12.6477 15.0605 12.2781 14.8308C 10.5551 13.7471 9.11178 12.3537 7.83327 10.7855C 7.19901 10.0064 6.63467 9.17242 6.24013 8.23352C 6.16022 8.04374 6.17521 7.91888 6.33002 7.76406C 6.92433 7.18973 7.50365 6.60042 8.08797 6.01111C 8.90202 5.19207 8.90202 4.23319 8.08298 3.40915C 7.61852 2.9397 7.15406 2.48023 6.6896 2.01078C 6.21016 1.53134 5.73572 1.0469 5.25128 0.572458C 4.4672 -0.19165 3.48834 -0.19165 2.70925 0.577453C 2.10995 1.16676 1.53562 1.77106 0.926332 2.35038C 0.361991 2.88476 0.0773229 3.539 0.0173928 4.3031C -0.0774964 5.54665 0.227148 6.72028 0.656647 7.86395C 1.53562 10.2312 2.87406 12.3337 4.49716 14.2615C 6.6896 16.8684 9.30655 18.931 12.368 20.4193C 13.7464 21.0885 15.1747 21.6029 16.7279 21.6878C 17.7966 21.7477 18.7256 21.4781 19.4697 20.644C 19.9791 20.0747 20.5534 19.5553 21.0928 19.0109C 21.8919 18.2019 21.8969 17.223 21.1028 16.424C 20.1539 15.4701 19.2 14.5212 18.2461 13.5723Z"/>
<path id="path1_fill" d="M 5.41368 7.10171L 7.25653 6.78708C 6.96687 5.09405 6.1678 3.56084 4.95422 2.34227C 3.67071 1.05876 2.04761 0.249709 0.259697 1.41943e-15L 1.95085e-07 1.85284C 1.38339 2.04761 2.64192 2.67188 3.63576 3.66572C 4.57466 4.60463 5.18894 5.79324 5.41368 7.10171Z"/>
<path id="path2_fill" d="M 8.0506 3.88546C 5.92309 1.75795 3.23123 0.414516 0.259697 0L -1.09735e-07 1.85284C 2.567 2.21242 4.89429 3.37606 6.73214 5.20892C 8.47511 6.95189 9.61877 9.15431 10.0333 11.5765L 11.8761 11.2619C 11.3917 8.45513 10.0682 5.9081 8.0506 3.88546Z"/>
</defs>
</svg>